<?xml version="1.0" encoding="iso-8859-1"?>
<!-- Generator: Adobe Illustrator 19.0.0, SVG Export Plug-In . SVG Version: 6.00 Build 0)  -->
<svg xmlns="http://www.w3.org/2000/svg" xmlns:xlink="http://www.w3.org/1999/xlink" version="1.1" id="Layer_1" x="0px" y="0px" viewBox="0 0 512 512" style="enable-background:new 0 0 512 512;" xml:space="preserve" width="512px" height="512px">
<g>
	<g>
		<path d="M446.268,439.724c-4.466,0-8.084,3.618-8.084,8.084v43.173c0,0.17-0.009,0.339-0.025,0.504    c-0.251,2.478-2.326,4.346-4.826,4.346h-58.408v-78.893c0-4.466-3.618-8.084-8.084-8.084c-4.465,0-8.084,3.618-8.084,8.084v78.893    h-13.95v-57.99c0-4.466-3.618-8.084-8.084-8.084H286.18c-4.466,0-8.084,3.618-8.084,8.084v57.99h-14.013V367.568l14.439,9.78    c1.35,0.914,2.932,1.391,4.534,1.391c0.603,0,1.207-0.068,1.803-0.205c2.186-0.5,4.065-1.885,5.19-3.824l37.546-64.748h18.43    c51.273,0,85.406,35.359,91.306,94.584c0.565,5.682,0.852,11.568,0.852,17.499c0,4.466,3.618,8.084,8.084,8.084    c4.465,0,8.084-3.618,8.084-8.084c0-6.463-0.314-12.889-0.931-19.1c-6.707-67.327-47.857-109.152-107.395-109.152h-21.384    l-20.172-8.893v-9.517c24.275-14.642,41.083-40.426,43.338-70.215c16.548-1.481,29.565-15.417,29.565-32.343    c0-8.108-2.993-15.526-7.925-21.224v-19.86c2.884-0.384,5.378-2.292,6.461-5.051c1.214-3.096,0.409-6.619-2.03-8.88    c-3.029-2.808-6.699-5.461-10.928-7.941C360.575,48.857,313.509,0,255.999,0S151.424,48.858,149.048,109.869    c-4.229,2.48-7.9,5.134-10.928,7.941c-2.438,2.261-3.243,5.784-2.03,8.88c1.082,2.76,3.576,4.668,6.461,5.051v19.49    c-5.122,5.744-8.244,13.309-8.244,21.592c0,17.036,13.185,31.039,29.886,32.368c2.263,29.778,19.068,55.553,43.336,70.19v9.517    l-20.171,8.893h-21.384c-59.537,0-100.688,41.824-107.394,109.152c-0.619,6.209-0.932,12.635-0.932,19.1v68.938    c0,0.714,0.037,1.434,0.109,2.139C58.848,503.883,67.836,512,78.665,512h96.611h50.542h60.362h50.543h96.611    c10.827,0,19.817-8.115,20.911-18.879c0.072-0.703,0.108-1.423,0.108-2.14v-43.173    C454.352,443.344,450.732,439.724,446.268,439.724z M354.067,159.36c0.156,0.107,0.316,0.21,0.469,0.322    c0.227,0.167,0.444,0.346,0.662,0.524c0.155,0.127,0.312,0.252,0.462,0.386c3.394,2.991,5.544,7.364,5.544,12.233    c0,7.898-5.644,14.503-13.109,15.996v-31.985c0.273,0.055,0.542,0.123,0.812,0.192c0.174,0.044,0.351,0.079,0.522,0.128    c0.317,0.092,0.627,0.205,0.938,0.316c0.376,0.135,0.744,0.284,1.106,0.444c0.207,0.092,0.417,0.175,0.62,0.275    c0.262,0.129,0.514,0.277,0.769,0.42c0.161,0.091,0.326,0.174,0.483,0.269C353.59,159.031,353.828,159.196,354.067,159.36z     M348.093,131.822h5.186v9.618c-0.041-0.011-0.083-0.017-0.124-0.028c-0.728-0.192-1.466-0.354-2.213-0.495    c-0.164-0.031-0.328-0.059-0.493-0.088c-0.763-0.133-1.534-0.246-2.314-0.323c-0.014-0.001-0.028-0.004-0.042-0.005V131.822z     M163.583,188.821c-7.465-1.493-13.108-8.098-13.108-15.997c0-4.903,2.177-9.307,5.613-12.299    c0.199-0.174,0.409-0.333,0.615-0.497c0.167-0.133,0.33-0.272,0.502-0.398c0.278-0.203,0.566-0.387,0.855-0.57    c0.136-0.086,0.268-0.178,0.406-0.26c0.384-0.229,0.775-0.443,1.175-0.638c0.105-0.052,0.216-0.093,0.321-0.141    c0.331-0.153,0.664-0.303,1.003-0.433c0.127-0.049,0.259-0.086,0.387-0.132c0.326-0.115,0.651-0.229,0.984-0.322    c0.151-0.043,0.306-0.074,0.458-0.113c0.261-0.066,0.523-0.128,0.788-0.182V188.821z M163.904,140.471    c-0.042,0.003-0.084,0.013-0.126,0.016c-0.792,0.073-1.575,0.177-2.35,0.305c-0.113,0.019-0.225,0.04-0.337,0.06    c-0.8,0.142-1.593,0.305-2.371,0.504v-9.536h5.185V140.471z M311.416,305.632l-31.005,53.467l-12.629-8.553l34.915-43.616    c1.006-1.257,1.609-2.779,1.744-4.373L311.416,305.632z M172.014,99.816c-1.595,0.526-3.155,1.067-4.681,1.624    c-0.151,0.055-0.306,0.109-0.457,0.164c-0.33,0.121-0.677,0.236-1.005,0.36c5.785-48.334,44.003-85.796,90.128-85.796    c46.126,0,84.344,37.462,90.129,85.796c-0.329-0.124-0.677-0.239-1.009-0.362c-0.14-0.052-0.286-0.101-0.427-0.153    c-1.533-0.561-3.102-1.105-4.706-1.633c-0.796-0.263-1.594-0.526-2.406-0.781c-0.523-0.164-1.05-0.324-1.58-0.485    c-1.164-0.355-2.344-0.701-3.54-1.039c-0.23-0.065-0.456-0.131-0.687-0.195c-18.059-5.038-39.63-8.244-62.758-9.124    c-0.29-0.011-0.581-0.021-0.872-0.031c-1.629-0.058-3.265-0.104-4.909-0.139c-0.465-0.01-0.928-0.022-1.393-0.029    c-1.94-0.033-3.887-0.055-5.844-0.055c-1.957,0-3.904,0.023-5.844,0.055c-0.465,0.008-0.928,0.019-1.392,0.029    c-1.644,0.034-3.281,0.081-4.91,0.139c-0.29,0.011-0.58,0.019-0.87,0.031c-23.127,0.881-44.697,4.086-62.756,9.124    c-0.233,0.065-0.461,0.131-0.693,0.197c-1.193,0.337-2.371,0.683-3.532,1.037c-0.53,0.161-1.06,0.322-1.583,0.486    C173.606,99.291,172.808,99.553,172.014,99.816z M176.581,115.286c0.16-0.054,0.321-0.106,0.482-0.16    c18.526-6.143,42.416-9.982,68.017-10.838c1.343-0.043,2.69-0.083,4.055-0.11c0.516-0.011,1.034-0.017,1.551-0.025    c1.757-0.027,3.521-0.047,5.314-0.047c1.792,0,3.557,0.02,5.314,0.047c0.517,0.009,1.035,0.014,1.551,0.025    c1.365,0.027,2.712,0.067,4.055,0.11c25.575,0.855,49.444,4.688,67.962,10.82c0.189,0.063,0.379,0.125,0.567,0.188    c0.35,0.117,0.692,0.238,1.038,0.358H175.513C175.868,115.531,176.22,115.407,176.581,115.286z M180.072,198.323v-49.407v-17.093    h151.854v17.093v47.816v1.591c0,29.234-17.094,54.55-41.813,66.478c-0.001,0-0.002,0.001-0.003,0.001    c-1.009,0.487-2.033,0.948-3.067,1.388c-0.097,0.041-0.193,0.085-0.29,0.126c-0.925,0.39-1.863,0.756-2.807,1.108    c-0.34,0.126-0.68,0.25-1.022,0.372c-0.688,0.246-1.381,0.479-2.077,0.704c-0.606,0.195-1.215,0.382-1.826,0.562    c-0.49,0.144-0.982,0.286-1.477,0.42c-0.529,0.143-1.058,0.288-1.59,0.419c-0.758,0.189-1.521,0.364-2.287,0.529    c-0.54,0.116-1.083,0.222-1.625,0.326c-0.515,0.098-1.034,0.19-1.552,0.278c-0.674,0.114-1.35,0.22-2.026,0.316    c-0.685,0.096-1.371,0.185-2.062,0.263c-0.389,0.044-0.779,0.087-1.17,0.125c-0.984,0.094-1.973,0.171-2.967,0.226    c-0.257,0.014-0.514,0.024-0.771,0.036c-1.106,0.05-2.215,0.084-3.332,0.084h-4.319c-1.18,0-2.353-0.034-3.519-0.089    c-0.146-0.006-0.291-0.012-0.437-0.019c-1.193-0.064-2.381-0.152-3.559-0.272c-0.013-0.001-0.026-0.003-0.04-0.004    C209.145,267.908,180.072,236.447,180.072,198.323z M207.556,302.556c0.135,1.593,0.739,3.116,1.745,4.372l34.914,43.617    l-12.629,8.554l-31.005-53.468L207.556,302.556z M217.734,495.832H183.36v-49.905h34.374V495.832z M247.915,495.832h-14.013    v-57.99c0-4.466-3.62-8.084-8.084-8.084h-50.542c-4.465,0-8.084,3.618-8.084,8.084v57.99H153.24v-78.893    c0-4.466-3.62-8.084-8.084-8.084s-8.084,3.618-8.084,8.084v78.893H78.665c-2.499,0-4.573-1.868-4.825-4.346    c-0.017-0.166-0.025-0.334-0.025-0.504v-68.937c0-5.933,0.287-11.819,0.853-17.497c5.899-59.226,40.032-94.585,91.306-94.585    h18.43l37.546,64.748c1.125,1.939,3.005,3.324,5.19,3.824c0.597,0.137,1.202,0.205,1.803,0.205c1.603,0,3.184-0.476,4.534-1.391    l14.437-9.78V495.832z M223.696,299.04v-0.832c0-0.003,0-0.006,0-0.011v-15.146c0.382,0.136,0.77,0.251,1.153,0.382    c3.104,1.06,6.281,1.956,9.525,2.675c0.158,0.036,0.316,0.076,0.474,0.11c0.971,0.21,1.951,0.393,2.933,0.571    c0.392,0.071,0.784,0.144,1.176,0.21c0.869,0.146,1.742,0.276,2.618,0.396c0.555,0.077,1.11,0.147,1.666,0.212    c0.762,0.089,1.524,0.177,2.292,0.247c0.766,0.071,1.535,0.124,2.303,0.176c0.595,0.04,1.187,0.087,1.784,0.115    c1.403,0.067,2.81,0.107,4.217,0.107h4.319c1.407,0,2.813-0.041,4.217-0.107c0.594-0.028,1.181-0.075,1.773-0.114    c0.775-0.052,1.549-0.105,2.322-0.177c0.76-0.07,1.513-0.155,2.268-0.245c0.567-0.068,1.133-0.138,1.699-0.217    c0.867-0.119,1.729-0.248,2.588-0.391c0.407-0.068,0.813-0.144,1.219-0.219c0.969-0.176,1.935-0.357,2.892-0.564    c0.183-0.04,0.364-0.086,0.548-0.126c3.225-0.717,6.382-1.609,9.467-2.662c0.383-0.13,0.77-0.246,1.15-0.382v15.146    c0,0.001,0,0.001,0,0.002v0.84l-32.3,40.355L223.696,299.04z M328.638,495.832h-34.374v-49.905h34.374V495.832z" fill="#FFFFFF"/>
	</g>
</g>
<g>
</g>
<g>
</g>
<g>
</g>
<g>
</g>
<g>
</g>
<g>
</g>
<g>
</g>
<g>
</g>
<g>
</g>
<g>
</g>
<g>
</g>
<g>
</g>
<g>
</g>
<g>
</g>
<g>
</g>
</svg>
