<?xml version="1.0" encoding="iso-8859-1"?>
<!-- Generator: Adobe Illustrator 19.0.0, SVG Export Plug-In . SVG Version: 6.00 Build 0)  -->
<svg xmlns="http://www.w3.org/2000/svg" xmlns:xlink="http://www.w3.org/1999/xlink" version="1.1" id="Layer_1" x="0px" y="0px" viewBox="0 0 512 512" style="enable-background:new 0 0 512 512;" xml:space="preserve" width="512px" height="512px">
<g>
	<g>
		<g>
			<path d="M509.736,212.839l-81.987-100.392c-1.906-2.335-4.762-3.689-7.775-3.689H92.026c-3.014,0-5.869,1.354-7.775,3.689     L2.264,212.839c-2.453,3.003-2.957,7.15-1.295,10.654c0.365,0.77,0.834,1.467,1.364,2.103c0.021,0.032,0.051,0.065,0.075,0.097     c0.048,0.057,0.088,0.122,0.138,0.178l245.957,276.074c1.904,2.138,4.632,3.361,7.496,3.361c2.864,0,5.591-1.223,7.496-3.361     l245.957-276.074c0.627-0.703,1.162-1.501,1.577-2.378C512.694,219.989,512.19,215.842,509.736,212.839z M335.037,128.837     l11.042,25.879c-3.201,4.679-27.745,40.209-36.837,54.435h-43.203v-25.612c3.789-5.56,28.512-41.349,37.117-54.702H335.037z      M357.898,172.971c1.63,2.365,21.477,31.084,29.743,43.875c-8.266,12.792-28.113,41.511-29.743,43.876     c-1.63-2.364-21.477-31.084-29.743-43.876C336.421,204.056,356.268,175.336,357.898,172.971z M96.789,128.836h58.345     l-8.306,19.469c-0.371,0.392-32.29,46.62-41.381,60.845H31.2L96.789,128.836z M183.845,216.846     c-8.266,12.792-28.113,41.511-29.743,43.876c-1.63-2.364-21.477-31.084-29.743-43.876c8.266-12.79,28.113-41.51,29.743-43.875     C155.732,175.336,175.579,204.055,183.845,216.846z M32.429,229.229h76.034l39.108,56.875l70.533,151.535L32.429,229.229z      M245.961,449.909l-79.755-171.347c3.107-4.537,25.422-36.84,33.535-49.333h46.22V449.909z M245.961,209.15h-43.203     c-9.092-14.225-33.634-49.755-36.837-54.435l11.042-25.879h31.881c8.605,13.354,33.327,49.142,37.117,54.702V209.15z      M256,162.673c-1.631-2.367-17.029-24.648-23.151-33.836h46.303C273.029,138.024,257.631,160.305,256,162.673z M266.039,229.229     h46.22c8.113,12.493,30.428,44.795,33.535,49.333l-79.755,171.347V229.229z M293.897,437.639l70.533-151.535l39.108-56.875     h76.034L293.897,437.639z M406.555,209.15c-9.091-14.225-41.009-60.452-41.381-60.845l-8.306-19.469h58.345l65.588,80.314     H406.555z" fill="#FFFFFF"/>
			<path d="M256,27.189c5.545,0,10.039-4.495,10.039-10.039v-0.418c0-5.545-4.495-10.039-10.039-10.039s-10.039,4.495-10.039,10.039     v0.418C245.961,22.695,250.455,27.189,256,27.189z" fill="#FFFFFF"/>
			<path d="M256,76.968c5.545,0,10.039-4.495,10.039-10.039V51.158c0-5.545-4.495-10.039-10.039-10.039s-10.039,4.495-10.039,10.039     v15.771C245.961,72.473,250.455,76.968,256,76.968z" fill="#FFFFFF"/>
			<path d="M331.294,75.623c1.581,0.913,3.307,1.346,5.011,1.346c3.47,0,6.844-1.8,8.703-5.021l25.098-43.471     c2.773-4.802,1.127-10.942-3.674-13.714c-4.8-2.771-10.941-1.127-13.714,3.674L327.62,61.909     C324.847,66.711,326.492,72.851,331.294,75.623z" fill="#FFFFFF"/>
			<path d="M166.992,71.948c1.859,3.221,5.233,5.021,8.703,5.021c1.703,0,3.429-0.434,5.011-1.346     c4.802-2.772,6.447-8.912,3.674-13.714l-25.098-43.471c-2.772-4.802-8.912-6.447-13.714-3.674     c-4.802,2.772-6.447,8.912-3.674,13.714L166.992,71.948z" fill="#FFFFFF"/>
		</g>
	</g>
</g>
<g>
</g>
<g>
</g>
<g>
</g>
<g>
</g>
<g>
</g>
<g>
</g>
<g>
</g>
<g>
</g>
<g>
</g>
<g>
</g>
<g>
</g>
<g>
</g>
<g>
</g>
<g>
</g>
<g>
</g>
</svg>
